<svg id="Ebene_1" data-name="Ebene 1" xmlns="http://www.w3.org/2000/svg" viewBox="0 0 1977 309"><defs><style>.cls-1{fill:#eeeeee;fill-rule:evenodd;}</style></defs><title>GP_logo_black_rgb</title> <path class="cls-1" d="M364.89,175.12c0-46.2,34.32-75.9,77-75.9,28.6,0,47.3,13.65,59,30.35L480,141.67A47.35,47.35,0,0,0,441.9,122.1c-29,0-50.6,22-50.6,53,0,30.57,21.55,53,50.6,53,15,0,28.15-6.82,34.75-13.2V192.27h-44V169.62h69.52v54.77a79.31,79.31,0,0,1-60.27,26.84C399.2,251.23,364.89,221.09,364.89,175.12Z" transform="translate(-9.06 -18.39)"/> <path class="cls-1" d="M640.3,248.38,629.52,220H562.21l-10.78,28.38H522.18l57.64-146.74h32.12l57.64,146.74Zm-44.43-121-26.4,70h52.8Z" transform="translate(-9.06 -18.39)"/> <path class="cls-1" d="M820.46,248.38V135.09L775.59,248.38h-11l-45.1-113.29V248.38H693.75V101.64h36.3l40,100.76,39.82-100.76h36.3V248.38Z" transform="translate(-9.06 -18.39)"/> <path class="cls-1" d="M885.79,248.38V101.64H986.33V124.3h-74.8v37.84h73.25v22.65H911.53v40.92h74.8v22.65H885.79Z" transform="translate(-9.06 -18.39)"/> <path class="cls-1" d="M1011.62,227.69l14.52-20a63.07,63.07,0,0,0,46.42,20.45c21.12,0,29.26-10.34,29.26-20.24,0-30.8-85.36-11.66-85.36-65.55,0-24.42,21.12-43.12,53.45-43.12,22.65,0,41.35,7.48,54.77,20.68L1110.18,139c-11.65-11.65-27.27-16.94-42.67-16.94-15,0-24.64,7.47-24.64,18.25,0,27.5,85.36,10.56,85.36,65.12,0,24.42-17.38,45.54-56.75,45.54C1044.4,251,1024.82,241.33,1011.62,227.69Z" transform="translate(-9.06 -18.39)"/> <path class="cls-1" d="M1160.11,248.38V101.64h64.67c30.8,0,47.74,20.9,47.74,46,0,24.85-17.15,45.75-47.74,45.75h-38.94v55h-25.73Zm86-100.76c0-14.08-10.35-23.32-24.86-23.32h-35.42v46.42h35.42C1235.78,170.72,1246.13,161.47,1246.13,147.62Z" transform="translate(-9.06 -18.39)"/> <path class="cls-1" d="M1300.68,248.38V101.64h25.74V225.71h64.67v22.65h-90.41Z" transform="translate(-9.06 -18.39)"/> <path class="cls-1" d="M1525.06,248.38,1514.28,220H1447l-10.77,28.38h-29.26l57.64-146.74h32.12l57.64,146.74Zm-44.44-121-26.4,70H1507Z" transform="translate(-9.06 -18.39)"/> <path class="cls-1" d="M1680.8,248.38l-76.55-104.94V248.38h-25.74V101.64h26.4l75,101.64V101.64h25.74V248.38Z" transform="translate(-9.06 -18.39)"/> <path class="cls-1" d="M1745.25,248.38V101.64h100.54V124.3H1771v37.84h73.26v22.65H1771v40.92h74.8v22.65H1745.25Z" transform="translate(-9.06 -18.39)"/> <path class="cls-1" d="M1915.51,248.38V124.3h-44.44V101.64h114.61V124.3h-44.44V248.36h-25.73Z" transform="translate(-9.06 -18.39)"/> <path class="cls-1" d="M208,319.49V282.66a118.92,118.92,0,0,0,73-109.85c0-61.76-46.86-112.52-106.79-118.34V93.36A80.4,80.4,0,0,1,208,238.91V165.09h-33.8V326c-3.93.3-7.91.46-11.91.46-84.64,0-153.27-69-153.27-154s68.63-154,153.27-154,153.26,69,153.26,154A154,154,0,0,1,208,319.49ZM151.2,264.68V165.09H117.4v73.82A80.39,80.39,0,0,1,151.19,93.36V54.47C91.26,60.29,44.41,111.05,44.41,172.81S91.26,285.33,151.2,291.14Z" transform="translate(-9.06 -18.39)"/></svg>
