<?xml version="1.0" standalone="no"?>
<!DOCTYPE svg PUBLIC "-//W3C//DTD SVG 20010904//EN"
 "http://www.w3.org/TR/2001/REC-SVG-20010904/DTD/svg10.dtd">
<svg version="1.0" xmlns="http://www.w3.org/2000/svg"
 width="1200.000000pt" height="400.000000pt" viewBox="0 0 1200.000000 400.000000"
 preserveAspectRatio="xMidYMid meet">
<metadata>
Created by potrace 1.16, written by Peter Selinger 2001-2019
</metadata>
<g transform="translate(0.000000,400.000000) scale(0.100000,-0.100000)"
fill="#000000" stroke="none">
<path d="M0 2000 l0 -2000 6000 0 6000 0 0 2000 0 2000 -6000 0 -6000 0 0
-2000z m2191 1743 c46 -49 241 -252 434 -453 192 -201 414 -431 492 -511 l143
-146 0 -475 0 -474 -212 -104 c-117 -58 -374 -187 -570 -287 -196 -101 -359
-183 -362 -183 -3 0 -6 236 -6 524 l0 523 194 92 c106 50 196 91 200 91 3 0 6
-123 6 -274 0 -152 4 -277 9 -280 5 -3 81 29 170 71 l161 76 0 264 0 264 -371
385 c-204 211 -373 384 -376 384 -7 0 -141 -139 -511 -530 l-242 -255 2 -254
3 -254 288 -171 287 -170 0 -244 c0 -134 -4 -242 -8 -240 -5 2 -228 133 -495
291 l-487 289 0 466 0 467 167 175 c465 489 987 1030 993 1030 3 0 44 -39 91
-87z m4683 -188 c38 -8 89 -24 113 -36 151 -73 208 -256 166 -531 l-6 -38
-214 0 -215 0 6 23 c3 12 9 56 12 97 6 69 5 77 -16 95 -16 15 -35 20 -73 19
-44 0 -54 -5 -83 -37 -31 -33 -34 -42 -34 -99 0 -41 7 -75 20 -102 11 -23 87
-117 170 -211 179 -202 230 -276 265 -378 46 -139 28 -345 -50 -564 -43 -120
-85 -192 -153 -260 -96 -94 -231 -142 -404 -143 -234 0 -395 80 -445 224 -28
79 -25 284 6 454 l24 132 209 0 c182 0 208 -2 208 -16 0 -8 -12 -80 -26 -159
-38 -207 -24 -255 77 -255 42 0 55 5 79 28 33 34 56 103 66 201 13 141 -20
205 -225 435 -213 239 -245 300 -245 476 -2 319 188 586 457 645 83 18 226 18
311 0z m-2488 -47 c-9 -61 -196 -1131 -255 -1458 -27 -151 -47 -278 -44 -282
2 -5 103 -8 225 -8 l220 0 -5 -22 c-3 -13 -17 -90 -32 -173 -14 -82 -29 -153
-31 -157 -3 -4 -201 -8 -440 -8 -385 0 -434 2 -434 15 0 9 58 343 129 743 71
400 155 877 187 1060 l58 332 214 0 215 0 -7 -42z m1412 8 c81 -37 142 -104
166 -181 33 -103 20 -219 -88 -820 -53 -297 -106 -572 -117 -612 -60 -216
-158 -366 -286 -435 -102 -56 -138 -61 -515 -65 -324 -5 -348 -4 -348 12 0 10
43 259 95 554 52 295 133 757 179 1026 47 270 89 506 92 523 l7 33 376 -3 376
-3 63 -29z m2067 12 c-16 -75 -76 -443 -73 -456 2 -11 15 1 40 36 77 106 171
147 317 140 134 -7 201 -50 242 -157 40 -105 34 -162 -109 -954 -71 -394 -131
-720 -134 -722 -3 -3 -102 -4 -220 -3 l-215 3 123 685 c68 377 123 706 124
732 0 66 -30 101 -89 101 -34 0 -49 -6 -77 -34 -18 -18 -37 -42 -40 -53 -4
-12 -64 -338 -133 -726 l-126 -705 -223 -3 c-122 -1 -222 1 -222 4 0 9 357
2014 371 2082 l10 52 220 0 219 0 -5 -22z m1485 -288 c30 -6 77 -21 106 -34
150 -69 235 -258 207 -463 -27 -196 -146 -860 -164 -921 -67 -217 -205 -352
-419 -409 -101 -27 -323 -25 -415 4 -133 42 -209 117 -240 238 -23 91 -18 191
20 410 19 110 53 306 75 435 45 268 58 319 106 410 87 166 240 289 407 325 75
16 244 19 317 5z m1472 0 c48 -14 94 -52 118 -100 28 -54 44 -162 36 -243 -11
-116 -185 -1073 -207 -1140 -56 -166 -160 -293 -276 -337 -86 -32 -197 -38
-255 -12 -52 23 -92 70 -114 136 -9 25 -19 46 -24 46 -7 0 -22 -73 -73 -360
l-22 -125 -221 -3 -221 -2 8 47 c260 1460 370 2070 374 2081 7 19 424 17 431
-2 3 -8 -1 -52 -10 -97 -9 -46 -14 -84 -12 -86 2 -2 14 11 26 29 58 84 127
140 203 164 51 15 188 18 239 4z m-7133 -2336 c12 -15 21 -32 21 -38 0 -29
-23 -89 -41 -107 -16 -16 -17 -22 -7 -38 21 -34 -8 -129 -52 -173 -34 -34 -43
-38 -88 -38 -63 0 -82 17 -82 73 0 75 7 87 51 87 l39 0 -6 -39 c-4 -25 -2 -41
6 -46 33 -20 69 93 37 118 -22 17 -11 66 18 77 23 9 35 29 35 61 0 27 -28 23
-42 -6 -9 -20 -18 -25 -50 -25 -43 0 -45 7 -22 56 21 44 56 63 116 64 39 0 50
-4 67 -26z m241 6 c12 -12 20 -33 20 -52 -1 -49 -55 -263 -74 -292 -25 -39
-72 -59 -125 -53 -79 9 -85 34 -46 207 29 127 43 159 81 189 36 29 116 29 144
1z m306 -190 l-111 -209 -37 -1 -38 0 50 93 c28 50 78 145 113 209 62 117 62
118 98 118 l37 0 -112 -210z m604 196 c0 -7 -20 -100 -45 -206 -25 -106 -45
-194 -45 -196 0 -2 -18 -4 -41 -4 -37 0 -40 2 -33 23 l6 22 -24 -22 c-26 -25
-67 -30 -86 -11 -18 18 -14 62 17 188 23 91 34 119 55 137 29 24 75 30 93 12
8 -8 13 -2 18 23 10 46 12 48 51 48 22 0 34 -5 34 -14z m574 -2 c19 -18 19
-27 5 -93 -6 -32 -19 -58 -33 -69 -18 -14 -21 -21 -12 -34 7 -12 5 -41 -8
-105 -10 -48 -20 -91 -23 -95 -2 -5 -20 -8 -39 -8 -19 0 -34 3 -34 8 0 4 9 45
20 91 16 67 18 86 8 93 -7 4 -16 8 -19 8 -3 0 -16 -45 -29 -100 l-22 -100 -39
0 c-36 0 -39 2 -34 23 3 12 23 101 45 197 22 96 42 181 45 188 7 19 149 16
169 -4z m506 2 c0 -7 -20 -100 -45 -206 -25 -106 -45 -194 -45 -196 0 -2 -18
-4 -41 -4 -37 0 -40 2 -33 23 l6 22 -24 -22 c-26 -25 -67 -30 -86 -11 -18 18
-14 62 17 188 23 91 34 119 55 137 29 24 75 30 93 12 8 -8 13 -2 18 23 10 46
12 48 51 48 22 0 34 -5 34 -14z m616 -26 c-4 -25 -2 -40 4 -40 17 0 11 -28 -9
-47 -24 -23 -72 -224 -54 -230 7 -3 8 -14 4 -31 -6 -22 -14 -28 -43 -30 -59
-5 -62 9 -29 149 16 72 25 128 20 133 -14 15 -10 46 6 52 8 3 20 24 25 45 10
36 13 39 47 39 l36 0 -7 -40z m3114 33 c0 -5 -4 -25 -9 -45 -9 -40 -2 -48 19
-23 15 18 61 20 78 3 18 -18 15 -49 -21 -203 l-33 -140 -37 -3 c-46 -4 -45 -9
-7 153 17 70 28 131 24 136 -10 17 -34 9 -43 -13 -4 -13 -20 -80 -36 -150
l-28 -128 -39 0 c-21 0 -38 5 -38 11 0 6 20 98 45 206 25 107 45 196 45 199 0
2 18 4 40 4 22 0 40 -3 40 -7z m-5506 -19 c20 -20 20 -58 0 -139 -13 -50 -24
-72 -51 -95 -41 -36 -93 -40 -123 -10 -24 24 -25 37 -4 129 22 95 54 131 117
131 28 0 52 -6 61 -16z m896 -44 c26 -14 31 -47 17 -110 l-12 -55 -65 -5 c-70
-5 -77 -13 -79 -88 -1 -27 3 -33 17 -30 9 2 22 19 28 38 10 30 16 35 48 38 44
4 47 -13 13 -73 -26 -46 -57 -65 -107 -65 -51 0 -80 24 -80 65 0 38 38 211 52
238 24 45 120 73 168 47z m590 0 c26 -14 31 -47 17 -110 l-12 -55 -65 -5 c-70
-5 -77 -13 -79 -88 -1 -27 3 -33 17 -30 9 2 22 19 28 38 10 30 16 35 48 38 44
4 47 -13 13 -73 -26 -46 -57 -65 -107 -65 -51 0 -80 24 -80 65 0 38 38 211 52
238 24 45 120 73 168 47z m406 -7 c-16 -53 -56 -238 -56 -260 0 -18 5 -24 18
-21 13 2 25 35 53 148 l35 145 37 3 c20 2 37 -1 37 -7 0 -10 -67 -304 -76
-333 -4 -13 -16 -18 -44 -18 -35 0 -38 2 -33 23 l6 22 -25 -22 c-32 -30 -75
-30 -89 0 -8 18 -3 55 21 163 17 76 34 147 36 157 4 12 16 17 45 17 34 0 39
-3 35 -17z m332 1 c22 -15 28 -54 16 -101 -5 -19 -13 -23 -45 -23 l-39 0 6 40
c6 36 4 40 -14 40 -23 0 -25 -3 -52 -115 -24 -102 -25 -125 -6 -125 19 0 32
19 41 58 6 30 10 32 47 32 39 0 40 0 33 -32 -12 -55 -32 -85 -71 -103 -44 -21
-112 -15 -131 11 -18 24 -16 49 7 150 25 108 42 145 78 166 34 22 101 23 130
2z m258 -161 l-41 -178 -38 -3 c-23 -2 -37 1 -37 9 0 11 67 311 75 337 3 7 21
12 43 12 l39 0 -41 -177z m254 157 c12 -12 20 -33 20 -52 0 -43 -36 -191 -55
-228 -31 -61 -126 -80 -170 -35 -14 13 -25 31 -25 39 0 29 43 202 57 229 31
61 132 88 173 47z m157 -1 l-6 -21 23 21 c39 37 96 23 96 -23 0 -12 -14 -87
-32 -168 l-33 -148 -37 0 c-21 0 -38 3 -38 6 0 3 14 64 30 136 35 153 36 158
11 158 -23 0 -28 -16 -66 -182 l-27 -118 -39 0 c-36 0 -39 2 -34 23 37 159 75
324 75 330 0 4 19 7 41 7 37 0 41 -2 36 -21z m445 4 c10 -9 18 -30 18 -50 0
-32 -1 -33 -40 -33 -34 0 -40 3 -40 21 0 14 -5 19 -17 17 -33 -6 -26 -38 21
-88 50 -53 56 -78 32 -135 -30 -71 -133 -99 -182 -49 -18 18 -24 32 -20 47 3
12 6 30 6 40 0 13 9 17 41 17 39 0 40 -1 37 -32 -2 -27 0 -33 17 -33 16 0 21
8 23 35 2 30 -3 41 -38 75 -42 41 -52 83 -29 126 27 52 132 78 171 42z m154 0
c-16 -53 -56 -238 -56 -260 0 -18 5 -24 18 -21 13 2 25 35 53 148 l35 145 37
3 c20 2 37 -1 37 -7 0 -10 -67 -304 -76 -333 -4 -13 -16 -18 -44 -18 -35 0
-38 2 -33 23 l6 22 -25 -22 c-32 -30 -75 -30 -89 0 -8 18 -3 55 21 163 17 76
34 147 36 157 4 12 16 17 45 17 34 0 39 -3 35 -17z m244 -3 l0 -20 20 20 c28
28 42 25 38 -7 -2 -22 -11 -30 -38 -39 l-35 -12 -31 -136 c-17 -75 -34 -139
-37 -142 -3 -3 -20 -4 -39 -2 l-35 3 41 178 40 177 38 0 c31 0 38 -4 38 -20z
m264 -77 c-8 -54 -16 -106 -18 -116 -13 -52 13 7 45 101 l36 107 36 3 c20 2
37 0 37 -5 0 -4 -30 -86 -67 -180 l-67 -173 -49 0 c-48 0 -48 1 -43 28 2 15 8
77 11 137 3 61 8 129 12 153 5 41 6 42 43 42 l37 0 -13 -97z m336 77 c12 -12
20 -33 20 -52 0 -43 -36 -191 -55 -228 -31 -61 -126 -80 -170 -35 -14 13 -25
31 -25 39 0 29 43 202 57 229 31 61 132 88 173 47z m238 4 c15 -11 22 -25 22
-50 0 -33 -1 -34 -40 -34 -33 0 -40 3 -40 20 0 13 -7 20 -20 20 -33 0 -24 -40
20 -85 51 -52 58 -87 28 -145 -27 -53 -79 -78 -141 -66 -45 8 -63 38 -53 90 7
34 9 36 47 36 40 0 40 -1 34 -29 -7 -33 8 -49 30 -31 25 21 17 59 -19 93 -19
18 -39 42 -45 54 -12 24 -6 69 13 95 33 45 121 62 164 32z m269 -4 c-5 -18 -4
-18 24 2 33 25 44 20 35 -16 -4 -18 -16 -28 -38 -34 -36 -9 -35 -7 -74 -174
l-27 -118 -39 0 c-35 0 -38 2 -33 23 37 159 75 324 75 330 0 4 19 7 41 7 36 0
41 -2 36 -20z m253 10 c26 -14 31 -47 17 -110 l-12 -55 -65 -5 c-70 -5 -77
-13 -79 -88 -1 -27 3 -33 17 -30 9 2 22 19 28 38 10 30 16 35 48 38 44 4 47
-13 13 -73 -26 -46 -57 -65 -107 -65 -51 0 -80 24 -80 65 0 38 38 211 52 238
24 45 120 73 168 47z m250 -10 c21 -21 24 -38 14 -89 -6 -28 -10 -31 -46 -31
l-40 0 7 41 c7 39 6 40 -16 37 -21 -3 -27 -14 -46 -93 -28 -113 -29 -148 -5
-143 10 2 22 20 30 46 13 40 16 42 54 42 33 0 38 -3 34 -17 -3 -10 -8 -30 -11
-44 -17 -72 -137 -117 -184 -70 -26 26 -26 57 -1 166 24 104 42 140 78 159 40
22 108 20 132 -4z m491 -10 c20 -26 17 -40 -46 -307 -4 -19 -12 -23 -44 -23
-36 0 -39 2 -34 23 l6 22 -25 -22 c-50 -47 -105 -18 -94 50 12 76 31 105 83
128 26 12 55 25 63 29 22 10 26 70 5 70 -9 0 -19 -9 -22 -20 -4 -16 -14 -20
-44 -20 -45 0 -46 3 -19 48 24 40 51 52 109 49 34 -2 48 -8 62 -27z m146 10
c-5 -18 -4 -18 24 2 33 25 44 20 35 -16 -4 -18 -16 -28 -38 -34 -36 -9 -35 -7
-74 -174 l-27 -118 -39 0 c-35 0 -38 2 -33 23 37 159 75 324 75 330 0 4 19 7
41 7 36 0 41 -2 36 -20z m207 -2 l16 -22 0 22 c0 19 5 22 40 22 27 0 40 -4 40
-14 0 -31 -69 -305 -84 -335 -22 -43 -75 -65 -139 -58 -61 5 -77 19 -53 46 14
16 23 18 49 10 36 -10 71 7 80 40 6 25 3 26 -28 5 -33 -22 -73 -11 -81 21 -9
38 41 234 68 262 28 30 72 30 92 1z m298 5 c20 -18 24 -68 7 -125 l-10 -38
-60 0 c-66 0 -73 -8 -81 -81 -2 -28 0 -34 17 -34 15 0 22 10 29 38 9 35 12 37
48 37 44 0 46 -7 19 -67 -30 -66 -115 -95 -169 -57 -28 20 -29 63 -1 183 21
92 45 136 83 151 36 15 98 11 118 -7z m236 1 c15 -11 22 -25 22 -50 0 -33 -1
-34 -40 -34 -33 0 -40 3 -40 20 0 13 -7 20 -20 20 -33 0 -24 -40 20 -85 51
-52 58 -87 28 -145 -27 -53 -79 -78 -141 -66 -45 8 -63 38 -53 90 7 34 9 36
47 36 40 0 40 -1 34 -29 -7 -33 8 -49 30 -31 25 21 17 59 -19 93 -19 18 -39
42 -45 54 -12 24 -6 69 13 95 33 45 121 62 164 32z m-6447 -74 c23 -13 25 -70
5 -145 -18 -70 -32 -92 -66 -110 -55 -28 -113 -15 -124 29 -6 26 16 137 36
182 21 46 100 69 149 44z"/>
<path d="M5352 3169 c-5 -13 -35 -172 -66 -354 -32 -181 -84 -482 -117 -668
-32 -186 -59 -345 -59 -353 0 -11 16 -14 70 -14 63 0 72 3 104 30 24 21 37 44
45 78 23 98 211 1180 211 1211 0 36 -37 81 -68 81 -11 0 -40 3 -65 6 -43 6
-47 5 -55 -17z"/>
<path d="M9203 2938 c-247 -344 -504 -721 -501 -736 3 -15 20 -17 137 -20 99
-2 132 -6 128 -15 -25 -67 -147 -509 -142 -517 3 -5 13 -10 21 -10 18 0 534
775 534 802 0 23 -22 27 -141 31 l-97 2 76 258 c68 232 74 260 60 273 -14 14
-21 7 -75 -68z"/>
<path d="M10379 2907 c-25 -17 -40 -39 -56 -85 -21 -58 -164 -825 -179 -958
-8 -76 7 -127 42 -143 68 -31 124 2 153 91 26 78 169 873 178 985 6 78 5 82
-20 107 -33 33 -73 34 -118 3z"/>
</g>
</svg>
